<svg id="Layer_1" data-name="Layer 1" xmlns="http://www.w3.org/2000/svg" viewBox="0 0 467.3 373.31"><defs><style>.cls-1{fill:#2f83e7;stroke:#fff;stroke-miterlimit:10;stroke-width:7px;}</style></defs><title>home</title><path class="cls-1" d="M454.15,643.94,290,779.27a3.88,3.88,0,0,1-.14.86,3.91,3.91,0,0,0-.14.85V918A18.54,18.54,0,0,0,308,936.3H417.6V826.66h73.1V936.3H600.33A18.56,18.56,0,0,0,618.61,918V781a4,4,0,0,0-.29-1.71Z" transform="translate(-220.5 -566.49)"/><path class="cls-1" d="M681.12,748.44l-62.52-52V580a8.8,8.8,0,0,0-9.14-9.14H554.65a8.79,8.79,0,0,0-9.14,9.14v55.67l-69.66-58.24a35.42,35.42,0,0,0-43.39,0l-205.28,171a8.29,8.29,0,0,0-3.14,6.14,9.25,9.25,0,0,0,2,6.71l17.7,21.13a9.74,9.74,0,0,0,6,3.14,10.61,10.61,0,0,0,6.86-2L454.15,618.82,651.72,783.56a8.8,8.8,0,0,0,6,2h.86a9.75,9.75,0,0,0,6-3.14l17.7-21.12a9.24,9.24,0,0,0,2-6.72A8.32,8.32,0,0,0,681.12,748.44Z" transform="translate(-220.5 -566.49)"/></svg>