<?xml version="1.0" encoding="utf-8"?>
<!-- Generator: Adobe Illustrator 21.1.0, SVG Export Plug-In . SVG Version: 6.00 Build 0)  -->
<svg version="1.1" id="Layer_1" xmlns="http://www.w3.org/2000/svg" xmlns:xlink="http://www.w3.org/1999/xlink" x="0px" y="0px"
	 viewBox="0 0 27 27" style="enable-background:new 0 0 27 27;" xml:space="preserve">
<style type="text/css">
	.st0{fill:#2F83E7;stroke:#FFFFFF;stroke-width:0.5;stroke-miterlimit:10;}
</style>
<title>ic_onCampus</title>
<desc>Created with Sketch.</desc>
<g id="OPt-2">
	<g id="prog2_pro3_Mobile-Portrait_opt2-Copy-2" transform="translate(-93.000000, -18.000000)">
		<g id="nav">
			<g id="Group-6">
				<g id="ic_onCampus_1_" transform="translate(96.000000, 20.000000)">
					<path id="Shape_1_" class="st0" d="M20,2v2h-5l-3.5,5H14v2h-1.5l3.7,8H14l-1-2H4.4l-1,2H1.1l4.1-8H5c-0.4,0-0.8-0.3-1-0.7
						L0.9,0.8l1-0.3C2.4,0.3,3,0.6,3.2,1.1L5.7,9h4.4l3.5-5H10V2H20L20,2z M7.5,11l-2.1,4h6.7l-1.8-4H7.5z"/>
				</g>
			</g>
		</g>
	</g>
</g>
</svg>
